<svg xmlns="http://www.w3.org/2000/svg" width="160" height="160" viewBox="0 0 160 160">
    <path fill="#008985" fill-rule="evenodd" d="M70.8 68.219c-1.76 1.355-3.591 2.622-5.405 3.91-.124.088-.292.114-.571.216-.261-.188-.69-.35-.838-.648-.145-.294-.158-.927.03-1.07 1.895-1.427 3.825-2.812 5.804-4.12.212-.14.98.18 1.163.482.172.286.07 1.035-.183 1.23M57.162 81.932c.97-2.175 1.83-4.226 2.826-6.21.15-.3 1.06-.521 1.385-.347.318.172.58.98.446 1.363-.67 1.91-1.431 3.792-2.275 5.63-.177.388-.865.795-1.268.75-.368-.04-.67-.68-1.114-1.186m44.327-5.627c.966 2.084 1.824 4.217 2.76 6.445-.481.492-.768 1.016-1.164 1.117-.323.084-1.007-.242-1.133-.549-.834-2.022-1.601-4.074-2.275-6.153-.107-.332.269-1.02.613-1.23.249-.15 1.072.097 1.2.37m-10.282-7.598c-.294-.246-.51-1.053-.338-1.276.26-.339 1.1-.686 1.334-.521 1.876 1.324 3.674 2.761 5.479 4.186.163.13.21.409.364.731-.232.284-.42.73-.721.826-.362.115-.921.071-1.218-.146-1.671-1.216-3.316-2.474-4.9-3.8m9.816 30.682c-.623 2.144-2.016 3.474-3.36 4.832-.36.364-.743.784-1.2.951-.402.147-1.036.132-1.348-.102-.225-.17-.283-.964-.082-1.227 1.295-1.7 2.654-3.357 4.067-4.963.24-.273.876-.383 1.259-.289.302.076.497.582.664.798M59.939 94.3c.128.672.226 1.428-.582 1.535-.415.055-1.159-.45-1.333-.875-.431-1.053-.651-2.198-.897-3.319-.188-.853-.285-1.725-.422-2.59-.062-.833.23-1.524 1.085-1.592.91-.072 1.086.656 1.2 1.447.26 1.806.605 3.6.949 5.394m31.608 13.187c.372.828-.074 1.426-.829 1.687-1.941.673-3.908 1.273-6.09 1.974-.425-.393-1.024-.688-1.144-1.116-.206-.74.233-1.224 1.066-1.396 1.772-.368 3.606-.511 5.176-1.616.62-.436 1.44-.382 1.821.467m-24.532-3.202c.29.328.244 1.084.112 1.577-.043.159-1.07.33-1.293.12-1.7-1.589-3.364-3.223-4.92-4.95-.511-.566.22-1.54 1.206-1.496.192.133.55.313.822.581 1.382 1.366 2.788 2.715 4.073 4.168m11.893 5.874c-.064.47-.722.857-1.193 1.354-2.278-.747-4.37-1.387-6.414-2.157-.292-.11-.579-.939-.447-1.267.132-.33.838-.693 1.21-.62 1.984.386 3.962.846 5.898 1.424.431.128 1 .878.946 1.266m1.713 8.193c-16.931.13-31.053-13.962-30.995-30.912.058-16.897 14.099-30.755 31.094-30.673 16.981.082 30.863 13.922 30.84 30.799-.023 16.89-13.934 30.878-30.939 30.786m.18-63.787c-18.213-.198-33.162 14.545-33.37 32.912.092 18.19 14.238 32.585 32.275 33.065 18.746.498 33.807-14.253 34.077-32.532.268-18.24-14.55-33.245-32.982-33.445m39.516-31.39c-1.896-.047-3.456-1.674-3.457-3.606 0-2.024 1.533-3.513 3.607-3.501 2.009.011 3.6 1.62 3.548 3.589-.052 1.943-1.757 3.566-3.698 3.517m.155-9.327c-3.315-.01-5.76 2.405-5.78 5.71-.022 3.267 2.426 5.733 5.738 5.783 3.127.047 5.737-2.53 5.752-5.68.017-3.292-2.45-5.804-5.71-5.813m-26.046 9.322c-1.944.01-3.56-1.638-3.549-3.616.013-2.049 1.515-3.502 3.61-3.493 1.936.008 3.513 1.562 3.542 3.491.028 1.91-1.664 3.608-3.603 3.618m-.015-9.344c-3.265.015-5.752 2.53-5.739 5.801.013 3.23 2.596 5.764 5.83 5.723 3.196-.041 5.686-2.564 5.68-5.754-.007-3.269-2.523-5.786-5.77-5.77m13.055 9.346c-1.968 0-3.711-1.731-3.687-3.66.024-1.904 1.724-3.48 3.716-3.447 2.058.036 3.53 1.552 3.487 3.593-.04 1.91-1.646 3.515-3.516 3.514m-.086-9.336c-3.212.006-5.794 2.615-5.763 5.819.031 3.124 2.643 5.692 5.79 5.693 3.191.001 5.863-2.638 5.85-5.78-.014-3.183-2.634-5.738-5.877-5.732m16.975 66.12c.385 2.48.537 4.997.85 8.108-.397 2.873-.869 6.307-1.353 9.74-.038.271-.183.528-.252.798-.196.77-.772 1.16-1.417.824-.377-.196-.718-.956-.66-1.409.205-1.618.673-3.202.89-4.82.787-5.854.382-11.635-1.25-17.322-.089-.306-.173-.613-.26-.92-.201-.716-.051-1.31.714-1.53.786-.226 1.213.255 1.39.95.476 1.854 1.055 3.695 1.348 5.58m-6.102 26.613c-1.341 2.158-2.649 4.348-4.154 6.39-5.802 7.869-13.623 12.81-23.002 15.303-5.755 1.53-11.601 1.74-17.508.726-8.93-1.532-16.551-5.509-22.953-11.863-3.288-3.264-5.775-7.087-7.914-11.18-3.013-5.764-4.231-11.918-4.33-17.312.054-19.538 12.118-36.026 29.827-41.2 14.752-4.31 28.184-1.38 40.038 8.443 4.182 3.466 7.386 7.723 9.93 12.502.414.777.393 1.285-.195 1.997-1.017 1.23-1.44 2.732-1.435 4.348.026 8.243.16 16.488-.02 24.726-.05 2.304.497 4.1 1.838 5.84.197.254.087.942-.122 1.28m2.03-2.607c-1.05-.745-1.468-1.786-1.569-2.966-.078-.91.04-1.834.04-2.753.01-7.682.027-15.365.005-23.047-.005-1.738.436-3.232 1.813-4.37.655-.541.75-1.145.326-1.902-.78-1.391-1.419-2.868-2.27-4.212-8.01-12.67-19.568-19.73-34.445-21.218-6.317-.632-12.516.324-18.551 2.445C48.175 52.072 36.138 68.967 36.129 88c.274 6.18 1.313 12.64 4.443 18.692 1.957 3.785 4.059 7.41 7.044 10.484 13.126 13.51 28.818 17.868 46.832 12.352 12.043-3.688 20.68-11.768 26.403-22.941.709-1.383.644-1.767-.568-2.627m11.77-72.716c.005 1.012-.332 1.297-1.312 1.293-8.178-.03-16.355-.017-24.533-.017v.008H82.036c-1.72 0-1.718 0-1.718-1.713.002-7 .002-14.001.006-21.002.001-1.567.008-1.571 1.593-1.571 16.235-.002 32.47.009 48.705-.026 1.12-.002 1.438.326 1.431 1.427-.042 7.2-.039 14.4 0 21.601M78.158 18.072c.015.914-.255 1.289-1.217 1.287-16.478-.02-32.955-.02-49.433-.006-.833 0-1.127-.298-1.117-1.128.034-2.88.052-5.762-.01-8.641-.022-1.07.355-1.365 1.394-1.36 8.138.034 16.277.019 24.415.019 8.14-.001 16.278.021 24.416-.025 1.218-.007 1.598.357 1.562 1.573-.084 2.758-.056 5.52-.01 8.28m-1.108 14.445c-.64-.027-1.281.003-1.923.003l-46.526.001c-.08 0-.16.004-.24.003-1.96-.009-1.96-.01-1.96-1.94-.001-2.6.047-5.2-.02-7.798-.027-1.08.372-1.363 1.397-1.359 8.134.031 16.27.018 24.404.018 8.136-.003 16.271-.004 24.406-.002 1.525 0 1.551.026 1.553 1.542.003 2.8-.024 5.6.02 8.398.011.841-.295 1.167-1.11 1.134m55.172-26.381H79.178c-17.722 0-35.445 0-53.167.002-1.666 0-1.81.143-1.81 1.77 0 8.322 0 16.645.003 24.968 0 1.571.241 1.814 1.805 1.814 35.364.008 70.728.014 106.092.019 1.935 0 2.126-.193 2.127-2.126.002-8.162.002-16.325.002-24.487 0-1.794-.172-1.96-2.006-1.96m7.554 134.297c0 .195-.054.39-.099.698-.438.02-.867.058-1.297.058-38.9.004-77.798 0-116.697.027-1.107 0-1.446-.32-1.44-1.423.044-7.243.033-14.486.027-21.73-.002-2.74-.072-5.48-.045-8.22.024-2.574.18-5.146.194-7.72.012-2.27-.138-4.542-.14-6.813-.013-30.454-.013-60.908-.016-91.363 0-1.75-.002-1.757 1.71-1.757 38.778 0 77.556.007 116.336-.029 1.3 0 1.493.465 1.492 1.596-.025 31.055-.023 62.11-.02 93.164.002 4.95.05 9.9.048 14.85-.006 9.554-.031 19.108-.053 28.662m-1.49 17.45c-22.942-.028-45.884-.022-68.826-.021-15.802 0-31.604.005-47.407.006-1.774 0-1.775-.007-1.775-1.797-.002-3.643-.004-7.285 0-10.927.001-1.736.006-1.74 1.712-1.74h57.996c19.251 0 38.503-.001 57.755.002 2.24 0 2.033-.23 2.037 2.089.007 3.642-.046 7.286.03 10.926.023 1.201-.398 1.463-1.523 1.462M140.454.005c-.321-.002-.642-.005-.962-.005L20.508.007c-2.276 0-2.448.176-2.45 2.471-.022 33.206-.048 66.412-.058 99.617 0 2.394.167 4.788.174 7.182.008 2.821-.107 5.642-.11 8.463-.012 13.407-.007 26.813-.004 40.22 0 1.86.188 2.038 2.082 2.038 19.93.002 39.862.002 59.793.002h60.033c1.924 0 2.03-.105 2.027-2.055-.017-15.483-.042-30.966-.051-46.448-.003-4.956.05-9.913.05-14.869.005-30.615.002-61.23 0-91.843 0-1.081-.016-2.162.005-3.242.02-1.067-.522-1.533-1.545-1.538"/>
</svg>
